<svg xmlns="http://www.w3.org/2000/svg" width="122" height="38" viewBox="46 -11 122 38"><path d="M48 10.5v-19h2.5v18.8c0 3.8 1 6.8 3 8.9 2 2.1 4.7 3.2 8.2 3.2 3.4 0 6.1-1 8-3 2-2 2.9-5 2.9-8.8v-19H75v18.7c0 4.6-1.2 8.1-3.7 10.6-2.4 2.5-5.7 3.7-9.8 3.7-2 0-3.8-.3-5.4-.9-1.7-.6-3.1-1.5-4.3-2.7-1.2-1.2-2.1-2.6-2.8-4.4-.7-1.9-1-3.9-1-6.1zm36 14v-33h2.3l22.4 28.7V-8.5h2.3v33h-1.8L86.3-4.8v29.3H84zm38.8 0v-33h2.5v33h-2.5zm9.7-16.7c0-2.2.4-4.3 1.2-6.4.8-2 1.9-3.8 3.3-5.4 1.4-1.5 3.1-2.8 5.2-3.7 2.1-.9 4.3-1.4 6.7-1.4 2.4 0 4.6.5 6.7 1.4 2.1.9 3.8 2.1 5.2 3.7 1.4 1.5 2.5 3.3 3.3 5.3.8 2 1.2 4.2 1.2 6.4s-.4 4.2-1.1 6.2c-.7 2-1.8 3.7-3.2 5.3l4.6 3.9-1.7 1.9-4.5-4.1c-2.9 2.5-6.4 3.7-10.5 3.7-2.4 0-4.6-.5-6.7-1.4-2.1-.9-3.8-2.1-5.1-3.7-1.4-1.5-2.5-3.3-3.2-5.4-1-2-1.4-4.1-1.4-6.3zm2.5 0c0 2.7.6 5.1 1.8 7.3 1.2 2.2 2.8 4 5 5.3 2.1 1.3 4.5 2 7.1 2 3.3 0 6.2-1 8.6-3.1l-6.3-5.4 1.7-1.9 6.2 5.6c2.4-2.8 3.5-6.1 3.5-9.9 0-2-.4-3.9-1.1-5.7-.7-1.8-1.7-3.3-2.9-4.7-1.2-1.3-2.7-2.3-4.4-3.1-1.7-.8-3.6-1.2-5.5-1.2-2.6 0-5 .7-7.1 2-2.1 1.3-3.8 3.1-4.9 5.3-1.1 2.3-1.7 4.8-1.7 7.5z" fill="#fff"/></svg>